<svg width="169" height="206" xmlns="http://www.w3.org/2000/svg" xml:space="preserve" version="1.1">
 <g>
  <title>Layer 1</title>
 </g>

 <g>
  <title>Layer 2</title>
  <g fill="#000000" transform="matrix(53.374 0 0 53.374 28.8887 -39.6569)" featurekey="symbolFeature-0" id="SvgjsG3485">
   <g id="svg_1" xmlns="http://www.w3.org/2000/svg">
    <g id="svg_2">
     <g id="svg_3">
      <circle id="svg_4" r="0.171" cy="4.27236" cx="1.08652" fill="#000000"/>
     </g>
    </g>
    <g id="svg_5">
     <g id="svg_6">
      <circle id="svg_7" r="0.171" cy="3.97736" cx="1.54952" fill="#000000"/>
     </g>
    </g>
    <g id="svg_8">
     <g id="svg_9">
      <circle id="svg_10" r="0.17" cy="2.68036" cx="2.21152" fill="#000000"/>
     </g>
    </g>
    <g id="svg_11">
     <g id="svg_12">
      <circle id="svg_13" r="0.171" cy="2.25736" cx="1.92352" fill="#000000"/>
     </g>
    </g>
    <g id="svg_14">
     <g id="svg_15">
      <circle id="svg_16" r="0.171" cy="1.38536" cx="1.54952" fill="#000000"/>
     </g>
    </g>
    <g id="svg_17">
     <g id="svg_18">
      <circle id="svg_19" r="0.171" cy="1.10136" cx="1.08652" fill="#000000"/>
     </g>
    </g>
    <g id="svg_20">
     <g id="svg_21">
      <circle id="svg_22" r="0.171" cy="1.47036" cx="-0.07048" fill="#000000"/>
     </g>
    </g>
    <g id="svg_23">
     <g id="svg_24">
      <circle id="svg_25" r="0.171" cy="2.71936" cx="0.02152" fill="#000000"/>
     </g>
    </g>
    <g id="svg_26">
     <g id="svg_27">
      <circle id="svg_28" r="0.17" cy="3.41636" cx="0.02152" fill="#000000"/>
     </g>
    </g>
    <g id="svg_29">
     <g id="svg_30">
      <circle id="svg_31" r="0.171" cy="3.92936" cx="0.52052" fill="#000000"/>
     </g>
    </g>
    <g id="svg_32">
     <g id="svg_33">
      <path id="svg_34" d="m0.79652,2.74536c0.065,-0.068 0.175,-0.068 0.24,0c0.066,0.065 0.066,0.174 0,0.239c-0.065,0.069 -0.175,0.069 -0.24,0c-0.068,-0.066 -0.068,-0.174 0,-0.239z" fill="#000000"/>
     </g>
    </g>
    <g id="svg_35">
     <g id="svg_36">
      <polygon id="svg_37" points="1.161521553993225,4.30035712569952 1.0145214796066284,4.30035712569952 1.0145214796066284,3.796356938779354 0.37852156162261963,3.1623571142554283 0.37852156162261963,2.3473572954535484 1.0105215311050415,1.7183571085333824 1.0105215311050415,1.0893571600317955 1.1575216054916382,1.0893571600317955 1.1575216054916382,1.779357098042965 0.5275216102600098,2.4103572592139244 0.5275216102600098,3.1013572439551353 1.161521553993225,3.7353573068976402 " fill="#000000"/>
     </g>
    </g>
    <g id="svg_38">
     <g id="svg_39">
      <polygon id="svg_40" points="1.1395217180252075,3.817357324063778 1.034521460533142,3.7143571600317955 1.4365216493606567,3.311357282102108 1.4365216493606567,2.7023570761084557 1.0575214624404907,2.321357272565365 1.477521538734436,1.9023571237921715 1.477521538734436,1.3853571638464928 1.6235215663909912,1.3853571638464928 1.6235215663909912,1.964357040822506 1.2675215005874634,2.321357272565365 1.5855215787887573,2.639357350766659 1.5855215787887573,3.374357245862484 " fill="#000000"/>
     </g>
    </g>
    <g id="svg_41">
     <g id="svg_42">
      <rect id="svg_43" height="0.148" width="0.739" fill="#000000" transform="matrix(0.7071 0.7071 -0.7071 0.7071 2.9341 -1.1352)" y="4.21158" x="1.42139"/>
     </g>
    </g>
    <g id="svg_44">
     <g id="svg_45">
      <polygon id="svg_46" points="0.39952147006988525,2.3983571752905846 -0.1444784551858902,1.8533570989966393 -0.1444784551858902,1.4703572019934654 0.003521561622619629,1.4703572019934654 0.003521561622619629,1.7923572286963463 0.5055217146873474,2.2923572286963463 " fill="#000000"/>
     </g>
    </g>
    <g id="svg_47">
     <g id="svg_48">
      <rect id="svg_49" height="0.583" width="0.148" fill="#000000" transform="matrix(0.7005 0.7137 -0.7137 0.7005 2.6385 -1.7338)" y="3.30623" x="2.27672"/>
     </g>
    </g>
    <g id="svg_50">
     <g id="svg_51">
      <rect id="svg_52" height="0.151" width="0.61" fill="#000000" transform="matrix(0.7087 0.7055 -0.7055 0.7087 2.4802 -0.5489)" y="3.9632" x="0.55042"/>
     </g>
    </g>
    <g id="svg_53">
     <g id="svg_54">
      <path id="svg_55" d="m0.02052,3.68336" fill="#000000"/>
     </g>
    </g>
    <g id="svg_56">
     <g id="svg_57">
      <polygon id="svg_58" points="1.5935215950012207,4.030357144773006 1.4885214567184448,3.924357198178768 1.8525216579437256,3.56235720962286 1.8525216579437256,2.934357188642025 2.1585216522216797,2.625357173383236 2.264521598815918,2.7313573583960533 1.9995217323303223,2.994357369840145 1.9995217323303223,3.623357318341732 " fill="#000000"/>
     </g>
    </g>
    <g id="svg_59">
     <g id="svg_60">
      <rect id="svg_61" height="0.151" width="0.707" fill="#000000" transform="matrix(0.7071 0.7071 -0.7071 0.7071 3.0378 -0.3476)" y="4.72958" x="0.53839"/>
     </g>
    </g>
   </g>
  </g>
 </g>
</svg>